<svg width="155" height="63" viewBox="0 0 155 63" fill="none" xmlns="http://www.w3.org/2000/svg">
<path d="M59.7213 32.9C59.5533 36.956 59.4693 41.3 59.4693 45.932C59.4693 50.588 59.5533 54.944 59.7213 59H46.8333L38.1213 39.344L38.7693 59H29.5173C29.7093 54.344 29.8053 49.988 29.8053 45.932C29.8053 41.9 29.7093 37.556 29.5173 32.9H42.7653L51.5133 53.096L50.9013 32.9H59.7213ZM83.4434 50H71.7074C71.8994 51.056 72.3674 51.92 73.1114 52.592C73.8794 53.24 74.9594 53.564 76.3514 53.564C77.3594 53.564 78.3074 53.372 79.1954 52.988C80.0834 52.58 80.7914 52.016 81.3194 51.296C82.9274 52.088 85.0634 52.94 87.7274 53.852C86.9834 55.532 85.6274 56.876 83.6594 57.884C81.7154 58.868 79.1714 59.36 76.0274 59.36C71.9474 59.36 68.9234 58.424 66.9554 56.552C65.0114 54.656 64.0394 52.172 64.0394 49.1C64.0394 46.1 65.0114 43.664 66.9554 41.792C68.8994 39.92 71.9234 38.984 76.0274 38.984C78.4754 38.984 80.5994 39.392 82.3994 40.208C84.1994 41.024 85.5794 42.164 86.5394 43.628C87.4994 45.068 87.9794 46.724 87.9794 48.596C87.9794 49.22 87.9554 49.688 87.9074 50H83.4434ZM76.5314 44.42C75.3314 44.42 74.3474 44.648 73.5794 45.104C72.8114 45.56 72.2714 46.184 71.9594 46.976H80.4554C80.1674 46.208 79.6994 45.596 79.0514 45.14C78.4034 44.66 77.5634 44.42 76.5314 44.42ZM103.913 59.36C101.897 59.36 99.8453 59.084 97.7573 58.532C95.6933 57.956 93.7493 57.092 91.9253 55.94L95.7053 50.792C96.8093 51.584 98.1413 52.208 99.7013 52.664C101.261 53.096 102.605 53.312 103.733 53.312C104.813 53.312 105.641 53.168 106.217 52.88C106.817 52.568 107.117 52.172 107.117 51.692C107.117 51.308 106.973 51.008 106.685 50.792C106.397 50.576 106.001 50.468 105.497 50.468C105.185 50.468 104.825 50.48 104.417 50.504C104.033 50.528 103.721 50.552 103.481 50.576C102.233 50.72 100.949 50.792 99.6293 50.792C97.4933 50.792 95.7533 50.396 94.4093 49.604C93.0893 48.788 92.4293 47.468 92.4293 45.644C92.4293 43.532 93.4253 41.9 95.4173 40.748C97.4093 39.572 100.337 38.984 104.201 38.984C106.097 38.984 108.005 39.26 109.925 39.812C111.869 40.34 113.585 41.144 115.073 42.224L110.933 46.4C109.565 45.68 108.281 45.176 107.081 44.888C105.905 44.576 104.717 44.42 103.517 44.42C102.677 44.42 101.957 44.588 101.357 44.924C100.757 45.26 100.457 45.644 100.457 46.076C100.457 46.412 100.577 46.676 100.817 46.868C101.081 47.06 101.417 47.156 101.825 47.156C102.233 47.156 102.797 47.12 103.517 47.048C105.269 46.928 106.577 46.868 107.441 46.868C109.937 46.868 111.869 47.288 113.237 48.128C114.605 48.968 115.289 50.252 115.289 51.98C115.289 54.572 114.281 56.456 112.265 57.632C110.249 58.784 107.465 59.36 103.913 59.36ZM135.214 45.788C133.006 45.644 130.99 45.536 129.166 45.464L129.13 49.28C129.13 50.576 129.406 51.596 129.958 52.34C130.534 53.06 131.542 53.42 132.982 53.42C133.534 53.42 134.062 53.372 134.566 53.276C134.47 54.164 134.422 55.064 134.422 55.976C134.422 56.408 134.446 57.392 134.494 58.928C133.438 59.12 132.55 59.24 131.83 59.288C131.11 59.336 130.174 59.36 129.022 59.36C126.214 59.36 124.222 58.688 123.046 57.344C121.894 55.976 121.318 54.08 121.318 51.656L121.354 45.572C120.226 45.62 119.05 45.692 117.826 45.788V39.416C119.074 39.416 120.13 39.02 120.994 38.228C121.858 37.436 122.374 36.488 122.542 35.384H132.334C131.11 37.064 129.754 38.408 128.266 39.416H135.214V45.788Z" fill="#2B788B"/>
<path d="M41.8416 20.172L43.7136 3.864H52.4976L47.6736 30H36.6216L34.1736 15.42L31.3296 30H20.7456L15.9216 3.864H24.7056L26.5416 19.956L29.4216 3.864H39.0336L41.8416 20.172ZM67.3175 30.36C63.2135 30.36 60.1895 29.424 58.2455 27.552C56.3255 25.656 55.3655 23.172 55.3655 20.1C55.3655 17.1 56.3255 14.664 58.2455 12.792C60.1895 10.92 63.2135 9.984 67.3175 9.984C70.0775 9.984 72.3815 10.44 74.2295 11.352C76.1015 12.24 77.4815 13.452 78.3695 14.988C79.2575 16.5 79.7015 18.204 79.7015 20.1C79.7015 23.196 78.6695 25.68 76.6055 27.552C74.5655 29.424 71.4695 30.36 67.3175 30.36ZM67.4615 24.24C69.0215 24.24 70.1855 23.868 70.9535 23.124C71.7215 22.38 72.1055 21.384 72.1055 20.136C72.1055 18.96 71.7215 18 70.9535 17.256C70.1855 16.488 69.0215 16.104 67.4615 16.104C65.9015 16.104 64.7615 16.476 64.0415 17.22C63.3215 17.964 62.9615 18.936 62.9615 20.136C62.9615 21.384 63.3215 22.38 64.0415 23.124C64.7615 23.868 65.9015 24.24 67.4615 24.24ZM92.3854 15.672C93.3934 12.048 95.9014 10.236 99.9094 10.236C100.605 10.236 101.277 10.284 101.925 10.38L100.773 18.444C99.0454 17.796 97.6294 17.472 96.5254 17.472C95.1574 17.472 94.1494 17.88 93.5014 18.696C92.8534 19.512 92.5294 20.604 92.5294 21.972V21.936L92.4934 24.312C92.4934 26.016 92.5414 27.912 92.6374 30H84.0334C84.2254 26.544 84.3214 23.28 84.3214 20.208C84.3214 17.136 84.2254 13.848 84.0334 10.344C85.6174 10.416 86.8294 10.452 87.6694 10.452C88.5574 10.452 89.7694 10.416 91.3054 10.344L92.3854 15.672ZM129.065 1.992C128.921 6.456 128.849 11.124 128.849 15.996C128.849 20.82 128.921 25.488 129.065 30H120.929L121.037 25.68C120.341 27.288 119.333 28.476 118.013 29.244C116.693 29.988 115.133 30.36 113.333 30.36C111.773 30.36 110.369 29.916 109.121 29.028C107.873 28.14 106.901 26.94 106.205 25.428C105.509 23.892 105.161 22.212 105.161 20.388C105.161 18.588 105.509 16.896 106.205 15.312C106.901 13.704 107.873 12.42 109.121 11.46C110.393 10.476 111.833 9.984 113.441 9.984C115.313 9.984 116.909 10.38 118.229 11.172C119.573 11.94 120.569 13.14 121.217 14.772C121.217 13.404 121.169 11.208 121.073 8.184C120.977 5.256 120.929 3.192 120.929 1.992H129.065ZM117.113 24.312C118.289 24.312 119.249 23.988 119.993 23.34C120.737 22.668 121.109 21.612 121.109 20.172C121.109 18.9 120.737 17.964 119.993 17.364C119.249 16.764 118.313 16.464 117.185 16.464C116.105 16.464 115.193 16.812 114.449 17.508C113.729 18.18 113.369 19.068 113.369 20.172C113.369 21.396 113.705 22.392 114.377 23.16C115.049 23.928 115.961 24.312 117.113 24.312Z" fill="#2B788B"/>
</svg>
