<svg width="143" height="67" viewBox="0 0 143 67" fill="none" xmlns="http://www.w3.org/2000/svg">
<path d="M56.6013 35.9C56.4333 39.956 56.3493 44.3 56.3493 48.932C56.3493 53.588 56.4333 57.944 56.6013 62H43.7133L35.0013 42.344L35.6493 62H26.3973C26.5893 57.344 26.6853 52.988 26.6853 48.932C26.6853 44.9 26.5893 40.556 26.3973 35.9H39.6453L48.3933 56.096L47.7813 35.9H56.6013ZM81.4034 53H69.6674C69.8594 54.056 70.3274 54.92 71.0714 55.592C71.8394 56.24 72.9194 56.564 74.3114 56.564C75.3194 56.564 76.2674 56.372 77.1554 55.988C78.0434 55.58 78.7514 55.016 79.2794 54.296C80.8874 55.088 83.0234 55.94 85.6874 56.852C84.9434 58.532 83.5874 59.876 81.6194 60.884C79.6754 61.868 77.1314 62.36 73.9874 62.36C69.9074 62.36 66.8834 61.424 64.9154 59.552C62.9714 57.656 61.9994 55.172 61.9994 52.1C61.9994 49.1 62.9714 46.664 64.9154 44.792C66.8594 42.92 69.8834 41.984 73.9874 41.984C76.4354 41.984 78.5594 42.392 80.3594 43.208C82.1594 44.024 83.5394 45.164 84.4994 46.628C85.4594 48.068 85.9394 49.724 85.9394 51.596C85.9394 52.22 85.9154 52.688 85.8674 53H81.4034ZM74.4914 47.42C73.2914 47.42 72.3074 47.648 71.5394 48.104C70.7714 48.56 70.2314 49.184 69.9194 49.976H78.4154C78.1274 49.208 77.6594 48.596 77.0114 48.14C76.3634 47.66 75.5234 47.42 74.4914 47.42ZM102.953 62.36C100.937 62.36 98.8853 62.084 96.7973 61.532C94.7333 60.956 92.7893 60.092 90.9653 58.94L94.7453 53.792C95.8493 54.584 97.1813 55.208 98.7413 55.664C100.301 56.096 101.645 56.312 102.773 56.312C103.853 56.312 104.681 56.168 105.257 55.88C105.857 55.568 106.157 55.172 106.157 54.692C106.157 54.308 106.013 54.008 105.725 53.792C105.437 53.576 105.041 53.468 104.537 53.468C104.225 53.468 103.865 53.48 103.457 53.504C103.073 53.528 102.761 53.552 102.521 53.576C101.273 53.72 99.9893 53.792 98.6693 53.792C96.5333 53.792 94.7933 53.396 93.4493 52.604C92.1293 51.788 91.4693 50.468 91.4693 48.644C91.4693 46.532 92.4653 44.9 94.4573 43.748C96.4493 42.572 99.3773 41.984 103.241 41.984C105.137 41.984 107.045 42.26 108.965 42.812C110.909 43.34 112.625 44.144 114.113 45.224L109.973 49.4C108.605 48.68 107.321 48.176 106.121 47.888C104.945 47.576 103.757 47.42 102.557 47.42C101.717 47.42 100.997 47.588 100.397 47.924C99.7973 48.26 99.4973 48.644 99.4973 49.076C99.4973 49.412 99.6173 49.676 99.8573 49.868C100.121 50.06 100.457 50.156 100.865 50.156C101.273 50.156 101.837 50.12 102.557 50.048C104.309 49.928 105.617 49.868 106.481 49.868C108.977 49.868 110.909 50.288 112.277 51.128C113.645 51.968 114.329 53.252 114.329 54.98C114.329 57.572 113.321 59.456 111.305 60.632C109.289 61.784 106.505 62.36 102.953 62.36ZM135.334 48.788C133.126 48.644 131.11 48.536 129.286 48.464L129.25 52.28C129.25 53.576 129.526 54.596 130.078 55.34C130.654 56.06 131.662 56.42 133.102 56.42C133.654 56.42 134.182 56.372 134.686 56.276C134.59 57.164 134.542 58.064 134.542 58.976C134.542 59.408 134.566 60.392 134.614 61.928C133.558 62.12 132.67 62.24 131.95 62.288C131.23 62.336 130.294 62.36 129.142 62.36C126.334 62.36 124.342 61.688 123.166 60.344C122.014 58.976 121.438 57.08 121.438 54.656L121.474 48.572C120.346 48.62 119.17 48.692 117.946 48.788V42.416C119.194 42.416 120.25 42.02 121.114 41.228C121.978 40.436 122.494 39.488 122.662 38.384H132.454C131.23 40.064 129.874 41.408 128.386 42.416H135.334V48.788Z" fill="#2B788B"/>
<path d="M31.2216 22.172L33.0936 5.864H41.8776L37.0536 32H26.0016L23.5536 17.42L20.7096 32H10.1256L5.30164 5.864H14.0856L15.9216 21.956L18.8016 5.864H28.4136L31.2216 22.172ZM57.7775 32.36C53.6735 32.36 50.6495 31.424 48.7055 29.552C46.7855 27.656 45.8255 25.172 45.8255 22.1C45.8255 19.1 46.7855 16.664 48.7055 14.792C50.6495 12.92 53.6735 11.984 57.7775 11.984C60.5375 11.984 62.8415 12.44 64.6895 13.352C66.5615 14.24 67.9415 15.452 68.8295 16.988C69.7175 18.5 70.1615 20.204 70.1615 22.1C70.1615 25.196 69.1295 27.68 67.0655 29.552C65.0255 31.424 61.9295 32.36 57.7775 32.36ZM57.9215 26.24C59.4815 26.24 60.6455 25.868 61.4135 25.124C62.1815 24.38 62.5655 23.384 62.5655 22.136C62.5655 20.96 62.1815 20 61.4135 19.256C60.6455 18.488 59.4815 18.104 57.9215 18.104C56.3615 18.104 55.2215 18.476 54.5015 19.22C53.7815 19.964 53.4215 20.936 53.4215 22.136C53.4215 23.384 53.7815 24.38 54.5015 25.124C55.2215 25.868 56.3615 26.24 57.9215 26.24ZM83.9254 17.672C84.9334 14.048 87.4414 12.236 91.4494 12.236C92.1454 12.236 92.8174 12.284 93.4654 12.38L92.3134 20.444C90.5854 19.796 89.1694 19.472 88.0654 19.472C86.6974 19.472 85.6894 19.88 85.0414 20.696C84.3934 21.512 84.0694 22.604 84.0694 23.972V23.936L84.0334 26.312C84.0334 28.016 84.0814 29.912 84.1774 32H75.5734C75.7654 28.544 75.8614 25.28 75.8614 22.208C75.8614 19.136 75.7654 15.848 75.5734 12.344C77.1574 12.416 78.3694 12.452 79.2094 12.452C80.0974 12.452 81.3094 12.416 82.8454 12.344L83.9254 17.672ZM121.685 3.992C121.541 8.456 121.469 13.124 121.469 17.996C121.469 22.82 121.541 27.488 121.685 32H113.549L113.657 27.68C112.961 29.288 111.953 30.476 110.633 31.244C109.313 31.988 107.753 32.36 105.953 32.36C104.393 32.36 102.989 31.916 101.741 31.028C100.493 30.14 99.5209 28.94 98.8249 27.428C98.1289 25.892 97.7809 24.212 97.7809 22.388C97.7809 20.588 98.1289 18.896 98.8249 17.312C99.5209 15.704 100.493 14.42 101.741 13.46C103.013 12.476 104.453 11.984 106.061 11.984C107.933 11.984 109.529 12.38 110.849 13.172C112.193 13.94 113.189 15.14 113.837 16.772C113.837 15.404 113.789 13.208 113.693 10.184C113.597 7.256 113.549 5.192 113.549 3.992H121.685ZM109.733 26.312C110.909 26.312 111.869 25.988 112.613 25.34C113.357 24.668 113.729 23.612 113.729 22.172C113.729 20.9 113.357 19.964 112.613 19.364C111.869 18.764 110.933 18.464 109.805 18.464C108.725 18.464 107.813 18.812 107.069 19.508C106.349 20.18 105.989 21.068 105.989 22.172C105.989 23.396 106.325 24.392 106.997 25.16C107.669 25.928 108.581 26.312 109.733 26.312Z" fill="#2B788B"/>
</svg>
