<svg width="400" height="401" viewBox="0 0 400 401" fill="none" xmlns="http://www.w3.org/2000/svg">
<path d="M0 12C0 5.37258 5.37258 0 12 0H388C394.627 0 400 5.37258 400 12V389C400 395.627 394.627 401 388 401H12C5.37257 401 0 395.627 0 389V12Z" fill="#2B788B"/>
<path d="M314.258 83.8191H293.258C283.246 51.6576 248.516 31 200.173 31C151.825 31 117.129 51.6576 107.106 83.8191H85.7419C82.5697 83.8191 80 86.0453 80 88.7652C80 91.5005 82.5713 93.7239 85.7419 93.7239H104.945C104.481 96.8966 103.845 99.9905 103.845 103.361V147.654C103.346 148.8 103.334 150.063 103.845 151.173V183.7C103.845 229.552 147.053 266.901 200.173 266.901C203.346 266.901 205.91 264.681 205.91 261.941V149.43C205.91 147.257 204.262 145.356 201.861 144.682C199.506 144.028 196.845 144.86 195.443 146.648C195.299 146.857 181.037 164.65 159.175 166.091C144.956 167.224 130.155 160.878 115.337 147.795V114.277C115.504 114.508 115.517 114.763 115.679 114.974C121.755 122.714 130.946 127.91 141.528 129.635C144.112 130.066 146.71 130.3 149.268 130.3C157.259 130.3 165.08 128.234 171.829 124.281C177.901 120.735 182.003 115.677 185.05 110.126C189.575 115.943 192.235 122.978 192.235 130.53C192.235 133.259 194.819 135.474 197.972 135.474H202.005C205.158 135.474 207.728 133.259 207.728 130.53C207.728 122.978 210.4 115.954 214.926 110.103C217.981 115.657 222.084 120.735 228.141 124.281C234.882 128.234 242.694 130.3 250.688 130.3C253.259 130.3 255.857 130.065 258.415 129.635C269.052 127.91 278.229 122.714 284.27 114.993C284.643 114.543 284.669 113.982 285.008 113.528V147.21C277.177 159.09 268.165 165.467 258.239 166.137C238.564 167.84 219.221 146.218 219.057 146.007C217.569 144.331 215.023 143.691 212.665 144.331C210.325 145.016 208.754 146.88 208.754 149.011L208.777 250.015C209.472 264.636 213.839 276.549 221.635 285.757H171.18C170.988 285.555 171.024 285.296 170.793 285.098L112.411 244.216C109.97 242.524 106.348 242.812 104.358 244.937C102.349 247.062 102.733 250.188 105.187 251.903L153.495 285.735H103.771C100.598 285.735 98.027 287.944 98.027 290.684C98.027 293.401 100.598 295.633 103.771 295.633H233.01C247.366 304.914 264.758 307 276.929 307C285.368 307 291.285 306.058 291.86 305.964C294.555 305.518 296.508 303.449 296.508 301.099V149.548C296.827 148.599 296.827 147.608 296.508 146.722V103.36C296.508 99.9905 295.881 96.9078 295.404 93.7225H314.258C317.429 93.7225 320 91.4991 320 88.7637C320 86.0453 317.403 83.8191 314.258 83.8191ZM285.027 296.765C275.701 297.462 254.284 297.779 238.825 287.189C227.313 279.287 221.036 266.63 220.246 249.8V161.494C229.29 168.645 243.674 176.885 259.127 175.989C268.687 175.364 277.354 171.373 285.027 164.171V296.765ZM160.144 175.955C175.014 174.945 186.721 168.312 194.432 162.302V256.84C150.3 254.309 115.324 222.478 115.324 183.722V161.322C130.038 172.067 144.982 177.003 160.144 175.955ZM165.411 116.089C159.019 119.828 151.347 121.209 143.682 119.932C136.086 118.681 129.489 114.95 125.142 109.43C121.472 104.752 120.26 99.2733 120.669 93.7309H128.21C128.862 102.717 135.499 110.444 145.508 112.022C156.2 113.737 166.336 107.775 170.257 98.5124C172.508 99.6024 174.62 100.862 176.61 102.266C174.695 107.841 171.05 112.777 165.411 116.089ZM199.996 113.505C197.337 107.683 193.003 102.719 188.027 98.3057C187.916 98.182 187.747 98.1257 187.634 98.002C177.826 89.481 164.631 83.843 149.651 83.843H119.106C130.038 54.5378 165.043 40.9245 200.173 40.9245C235.306 40.9245 270.337 54.5153 281.235 83.8416H250.322C235.346 83.8416 222.136 89.5021 212.315 98.023C212.214 98.1468 212.061 98.2002 211.973 98.3043C206.985 102.719 202.654 107.63 199.996 113.505ZM256.293 119.932C248.705 121.208 240.996 119.828 234.609 116.089C228.963 112.778 225.302 107.841 223.423 102.267C225.38 100.833 227.502 99.6038 229.761 98.5139C233.682 107.776 243.844 113.739 254.533 112.023C264.519 110.411 271.161 102.719 271.834 93.7323H279.351C279.75 99.2747 278.569 104.754 274.88 109.431C270.515 114.95 263.923 118.647 256.293 119.932Z" fill="white"/>
<path d="M105.021 351.08L107.101 332.96H116.861L111.501 362H99.2211L96.5011 345.8L93.3411 362H81.5811L76.2211 332.96H85.9811L88.0211 350.84L91.2211 332.96H101.901L105.021 351.08ZM133.328 362.4C128.768 362.4 125.408 361.36 123.248 359.28C121.114 357.173 120.048 354.413 120.048 351C120.048 347.667 121.114 344.96 123.248 342.88C125.408 340.8 128.768 339.76 133.328 339.76C136.394 339.76 138.954 340.267 141.008 341.28C143.088 342.267 144.621 343.613 145.608 345.32C146.594 347 147.088 348.893 147.088 351C147.088 354.44 145.941 357.2 143.648 359.28C141.381 361.36 137.941 362.4 133.328 362.4ZM133.488 355.6C135.221 355.6 136.514 355.187 137.368 354.36C138.221 353.533 138.648 352.427 138.648 351.04C138.648 349.733 138.221 348.667 137.368 347.84C136.514 346.987 135.221 346.56 133.488 346.56C131.754 346.56 130.488 346.973 129.688 347.8C128.888 348.627 128.488 349.707 128.488 351.04C128.488 352.427 128.888 353.533 129.688 354.36C130.488 355.187 131.754 355.6 133.488 355.6ZM161.181 346.08C162.301 342.053 165.087 340.04 169.541 340.04C170.314 340.04 171.061 340.093 171.781 340.2L170.501 349.16C168.581 348.44 167.007 348.08 165.781 348.08C164.261 348.08 163.141 348.533 162.421 349.44C161.701 350.347 161.341 351.56 161.341 353.08V353.04L161.301 355.68C161.301 357.573 161.354 359.68 161.461 362H151.901C152.114 358.16 152.221 354.533 152.221 351.12C152.221 347.707 152.114 344.053 151.901 340.16C153.661 340.24 155.007 340.28 155.941 340.28C156.927 340.28 158.274 340.24 159.981 340.16L161.181 346.08ZM201.936 330.88C201.776 335.84 201.696 341.027 201.696 346.44C201.696 351.8 201.776 356.987 201.936 362H192.896L193.016 357.2C192.242 358.987 191.122 360.307 189.656 361.16C188.189 361.987 186.456 362.4 184.456 362.4C182.722 362.4 181.162 361.907 179.776 360.92C178.389 359.933 177.309 358.6 176.536 356.92C175.762 355.213 175.376 353.347 175.376 351.32C175.376 349.32 175.762 347.44 176.536 345.68C177.309 343.893 178.389 342.467 179.776 341.4C181.189 340.307 182.789 339.76 184.576 339.76C186.656 339.76 188.429 340.2 189.896 341.08C191.389 341.933 192.496 343.267 193.216 345.08C193.216 343.56 193.162 341.12 193.056 337.76C192.949 334.507 192.896 332.213 192.896 330.88H201.936ZM188.656 355.68C189.962 355.68 191.029 355.32 191.856 354.6C192.682 353.853 193.096 352.68 193.096 351.08C193.096 349.667 192.682 348.627 191.856 347.96C191.029 347.293 189.989 346.96 188.736 346.96C187.536 346.96 186.522 347.347 185.696 348.12C184.896 348.867 184.496 349.853 184.496 351.08C184.496 352.44 184.869 353.547 185.616 354.4C186.362 355.253 187.376 355.68 188.656 355.68ZM240.711 333C240.524 337.507 240.431 342.333 240.431 347.48C240.431 352.653 240.524 357.493 240.711 362H226.391L216.711 340.16L217.431 362H207.151C207.364 356.827 207.471 351.987 207.471 347.48C207.471 343 207.364 338.173 207.151 333H221.871L231.591 355.44L230.911 333H240.711ZM267.069 352H254.029C254.242 353.173 254.762 354.133 255.589 354.88C256.442 355.6 257.642 355.96 259.189 355.96C260.309 355.96 261.362 355.747 262.349 355.32C263.335 354.867 264.122 354.24 264.709 353.44C266.495 354.32 268.869 355.267 271.829 356.28C271.002 358.147 269.495 359.64 267.309 360.76C265.149 361.853 262.322 362.4 258.829 362.4C254.295 362.4 250.935 361.36 248.749 359.28C246.589 357.173 245.509 354.413 245.509 351C245.509 347.667 246.589 344.96 248.749 342.88C250.909 340.8 254.269 339.76 258.829 339.76C261.549 339.76 263.909 340.213 265.909 341.12C267.909 342.027 269.442 343.293 270.509 344.92C271.575 346.52 272.109 348.36 272.109 350.44C272.109 351.133 272.082 351.653 272.029 352H267.069ZM259.389 345.8C258.055 345.8 256.962 346.053 256.109 346.56C255.255 347.067 254.655 347.76 254.309 348.64H263.749C263.429 347.787 262.909 347.107 262.189 346.6C261.469 346.067 260.535 345.8 259.389 345.8ZM289.813 362.4C287.573 362.4 285.293 362.093 282.973 361.48C280.68 360.84 278.52 359.88 276.493 358.6L280.693 352.88C281.92 353.76 283.4 354.453 285.133 354.96C286.866 355.44 288.36 355.68 289.613 355.68C290.813 355.68 291.733 355.52 292.373 355.2C293.04 354.853 293.373 354.413 293.373 353.88C293.373 353.453 293.213 353.12 292.893 352.88C292.573 352.64 292.133 352.52 291.573 352.52C291.226 352.52 290.826 352.533 290.373 352.56C289.946 352.587 289.6 352.613 289.333 352.64C287.946 352.8 286.52 352.88 285.053 352.88C282.68 352.88 280.746 352.44 279.253 351.56C277.786 350.653 277.053 349.187 277.053 347.16C277.053 344.813 278.16 343 280.373 341.72C282.586 340.413 285.84 339.76 290.133 339.76C292.24 339.76 294.36 340.067 296.493 340.68C298.653 341.267 300.56 342.16 302.213 343.36L297.613 348C296.093 347.2 294.666 346.64 293.333 346.32C292.026 345.973 290.706 345.8 289.373 345.8C288.44 345.8 287.64 345.987 286.973 346.36C286.306 346.733 285.973 347.16 285.973 347.64C285.973 348.013 286.106 348.307 286.373 348.52C286.666 348.733 287.04 348.84 287.493 348.84C287.946 348.84 288.573 348.8 289.373 348.72C291.32 348.587 292.773 348.52 293.733 348.52C296.506 348.52 298.653 348.987 300.173 349.92C301.693 350.853 302.453 352.28 302.453 354.2C302.453 357.08 301.333 359.173 299.093 360.48C296.853 361.76 293.76 362.4 289.813 362.4ZM324.591 347.32C322.138 347.16 319.898 347.04 317.871 346.96L317.831 351.2C317.831 352.64 318.138 353.773 318.751 354.6C319.391 355.4 320.511 355.8 322.111 355.8C322.724 355.8 323.311 355.747 323.871 355.64C323.764 356.627 323.711 357.627 323.711 358.64C323.711 359.12 323.738 360.213 323.791 361.92C322.618 362.133 321.631 362.267 320.831 362.32C320.031 362.373 318.991 362.4 317.711 362.4C314.591 362.4 312.378 361.653 311.071 360.16C309.791 358.64 309.151 356.533 309.151 353.84L309.191 347.08C307.938 347.133 306.631 347.213 305.271 347.32V340.24C306.658 340.24 307.831 339.8 308.791 338.92C309.751 338.04 310.324 336.987 310.511 335.76H321.391C320.031 337.627 318.524 339.12 316.871 340.24H324.591V347.32Z" fill="white"/>
</svg>
