<svg width="63" height="42" viewBox="0 0 63 42" fill="none" xmlns="http://www.w3.org/2000/svg">
<rect x="16" width="32" height="30" rx="4" fill="#2B788B"/>
<path d="M42.3632 6.87561H40.448C39.535 3.90686 36.3678 2 31.9592 2C27.55 2 24.386 3.90686 23.4719 6.87561H21.5236C21.2343 6.87561 21 7.0811 21 7.33217C21 7.58466 21.2345 7.7899 21.5236 7.7899H23.2748C23.2325 8.08276 23.1746 8.36835 23.1746 8.67952V12.7681C23.129 12.8739 23.128 12.9904 23.1746 13.0929V16.0954C23.1746 20.3279 27.1149 23.7755 31.9592 23.7755C32.2485 23.7755 32.4824 23.5705 32.4824 23.3176V12.932C32.4824 12.7314 32.3321 12.5559 32.1131 12.4938C31.8983 12.4334 31.6557 12.5101 31.5278 12.6752C31.5147 12.6945 30.2141 14.3369 28.2204 14.4699C26.9236 14.5746 25.5739 13.9887 24.2226 12.781V9.68715C24.2377 9.70844 24.2389 9.73193 24.2538 9.75141C24.8079 10.4659 25.646 10.9456 26.611 11.1047C26.8467 11.1446 27.0836 11.1661 27.3169 11.1661C28.0456 11.1661 28.7589 10.9754 29.3743 10.6105C29.9281 10.2833 30.3022 9.81632 30.58 9.30393C30.9927 9.84085 31.2352 10.4903 31.2352 11.1874C31.2352 11.4393 31.4709 11.6437 31.7584 11.6437H32.1263C32.4138 11.6437 32.6481 11.4393 32.6481 11.1874C32.6481 10.4903 32.8918 9.84189 33.3045 9.30186C33.5831 9.8145 33.9574 10.2833 34.5097 10.6105C35.1245 10.9754 35.8369 11.1661 36.5659 11.1661C36.8004 11.1661 37.0373 11.1445 37.2706 11.1047C38.2406 10.9456 39.0774 10.4659 39.6284 9.75322C39.6624 9.71168 39.6648 9.65989 39.6957 9.61796V12.727C38.9815 13.8237 38.1597 14.4123 37.2545 14.4742C35.4603 14.6314 33.6963 12.6355 33.6813 12.616C33.5456 12.4613 33.3134 12.4022 33.0984 12.4613C32.885 12.5245 32.7417 12.6967 32.7417 12.8933L32.7438 22.2168C32.8072 23.5664 33.2055 24.666 33.9164 25.5161H29.3152C29.2977 25.4974 29.3009 25.4735 29.2799 25.4552L23.9557 21.6814C23.7331 21.5253 23.4028 21.5519 23.2214 21.748C23.0381 21.9442 23.0732 22.2328 23.297 22.391L27.7024 25.514H23.1678C22.8785 25.514 22.644 25.7179 22.644 25.9708C22.644 26.2216 22.8785 26.4276 23.1678 26.4276H34.9537C36.2629 27.2844 37.849 27.4769 38.9589 27.4769C39.7285 27.4769 40.2682 27.3899 40.3206 27.3812C40.5664 27.3401 40.7444 27.1491 40.7444 26.9322V12.9429C40.7735 12.8553 40.7735 12.7638 40.7444 12.682V8.67939C40.7444 8.36835 40.6873 8.0838 40.6437 7.78977H42.3632C42.6523 7.78977 42.8868 7.58453 42.8868 7.33204C42.8868 7.0811 42.6499 6.87561 42.3632 6.87561ZM39.6975 26.5321C38.847 26.5965 36.8938 26.6257 35.484 25.6482C34.4342 24.9188 33.8617 23.7504 33.7897 22.1969V14.0456C34.6145 14.7057 35.9263 15.4663 37.3355 15.3836C38.2073 15.3259 38.9977 14.9575 39.6975 14.2927V26.5321ZM28.3088 15.3805C29.6648 15.2873 30.7324 14.6749 31.4356 14.1202V22.8468C27.411 22.6131 24.2214 19.6749 24.2214 16.0974V14.0297C25.5632 15.0215 26.926 15.4772 28.3088 15.3805ZM28.789 9.85435C28.2061 10.1995 27.5065 10.327 26.8075 10.2091C26.1147 10.0936 25.5131 9.7492 25.1168 9.23968C24.782 8.80791 24.6715 8.30215 24.7088 7.79055H25.3965C25.4559 8.62007 26.0613 9.33327 26.974 9.47892C27.9491 9.6373 28.8734 9.08688 29.231 8.23192C29.4362 8.33253 29.6288 8.44884 29.8103 8.5784C29.6357 9.09298 29.3033 9.54864 28.789 9.85435ZM31.943 9.61588C31.7005 9.07844 31.3053 8.6202 30.8515 8.21284C30.8414 8.20141 30.826 8.19622 30.8157 8.1848C29.9213 7.39824 28.7179 6.87781 27.3518 6.87781H24.5662C25.5632 4.17272 28.7555 2.91611 31.9592 2.91611C35.1631 2.91611 38.3578 4.17064 39.3516 6.87768H36.5325C35.1668 6.87768 33.9621 7.40019 33.0665 8.18674C33.0573 8.19817 33.0433 8.2031 33.0353 8.21271C32.5804 8.6202 32.1854 9.07351 31.943 9.61588ZM37.0771 10.2091C36.385 10.3269 35.682 10.1995 35.0995 9.85435C34.5847 9.54877 34.2508 9.09298 34.0794 8.57853C34.258 8.44611 34.4515 8.33265 34.6574 8.23205C35.015 9.08701 35.9417 9.63743 36.9165 9.47905C37.8272 9.33029 38.4329 8.6202 38.4943 7.79068H39.1798C39.2162 8.30228 39.1085 8.80804 38.7721 9.2398C38.374 9.7492 37.7728 10.0905 37.0771 10.2091Z" fill="white"/>
<path d="M7.75527 38.27L8.27527 33.74H10.7153L9.37527 41H6.30527L5.62527 36.95L4.83527 41H1.89527L0.555273 33.74H2.99527L3.50527 38.21L4.30527 33.74H6.97527L7.75527 38.27ZM14.8319 41.1C13.6919 41.1 12.8519 40.84 12.3119 40.32C11.7786 39.7933 11.5119 39.1033 11.5119 38.25C11.5119 37.4167 11.7786 36.74 12.3119 36.22C12.8519 35.7 13.6919 35.44 14.8319 35.44C15.5986 35.44 16.2386 35.5667 16.7519 35.82C17.2719 36.0667 17.6552 36.4033 17.9019 36.83C18.1486 37.25 18.2719 37.7233 18.2719 38.25C18.2719 39.11 17.9852 39.8 17.4119 40.32C16.8452 40.84 15.9852 41.1 14.8319 41.1ZM14.8719 39.4C15.3052 39.4 15.6286 39.2967 15.8419 39.09C16.0552 38.8833 16.1619 38.6067 16.1619 38.26C16.1619 37.9333 16.0552 37.6667 15.8419 37.46C15.6286 37.2467 15.3052 37.14 14.8719 37.14C14.4386 37.14 14.1219 37.2433 13.9219 37.45C13.7219 37.6567 13.6219 37.9267 13.6219 38.26C13.6219 38.6067 13.7219 38.8833 13.9219 39.09C14.1219 39.2967 14.4386 39.4 14.8719 39.4ZM21.7952 37.02C22.0752 36.0133 22.7719 35.51 23.8852 35.51C24.0785 35.51 24.2652 35.5233 24.4452 35.55L24.1252 37.79C23.6452 37.61 23.2519 37.52 22.9452 37.52C22.5652 37.52 22.2852 37.6333 22.1052 37.86C21.9252 38.0867 21.8352 38.39 21.8352 38.77V38.76L21.8252 39.42C21.8252 39.8933 21.8385 40.42 21.8652 41H19.4752C19.5285 40.04 19.5552 39.1333 19.5552 38.28C19.5552 37.4267 19.5285 36.5133 19.4752 35.54C19.9152 35.56 20.2519 35.57 20.4852 35.57C20.7319 35.57 21.0685 35.56 21.4952 35.54L21.7952 37.02ZM31.9839 33.22C31.9439 34.46 31.9239 35.7567 31.9239 37.11C31.9239 38.45 31.9439 39.7467 31.9839 41H29.7239L29.7539 39.8C29.5606 40.2467 29.2806 40.5767 28.9139 40.79C28.5473 40.9967 28.1139 41.1 27.6139 41.1C27.1806 41.1 26.7906 40.9767 26.4439 40.73C26.0973 40.4833 25.8273 40.15 25.6339 39.73C25.4406 39.3033 25.3439 38.8367 25.3439 38.33C25.3439 37.83 25.4406 37.36 25.6339 36.92C25.8273 36.4733 26.0973 36.1167 26.4439 35.85C26.7973 35.5767 27.1973 35.44 27.6439 35.44C28.1639 35.44 28.6073 35.55 28.9739 35.77C29.3473 35.9833 29.6239 36.3167 29.8039 36.77C29.8039 36.39 29.7906 35.78 29.7639 34.94C29.7373 34.1267 29.7239 33.5533 29.7239 33.22H31.9839ZM28.6639 39.42C28.9906 39.42 29.2573 39.33 29.4639 39.15C29.6706 38.9633 29.7739 38.67 29.7739 38.27C29.7739 37.9167 29.6706 37.6567 29.4639 37.49C29.2573 37.3233 28.9973 37.24 28.6839 37.24C28.3839 37.24 28.1306 37.3367 27.9239 37.53C27.7239 37.7167 27.6239 37.9633 27.6239 38.27C27.6239 38.61 27.7173 38.8867 27.9039 39.1C28.0906 39.3133 28.3439 39.42 28.6639 39.42ZM41.6777 33.75C41.631 34.8767 41.6077 36.0833 41.6077 37.37C41.6077 38.6633 41.631 39.8733 41.6777 41H38.0977L35.6777 35.54L35.8577 41H33.2877C33.341 39.7067 33.3677 38.4967 33.3677 37.37C33.3677 36.25 33.341 35.0433 33.2877 33.75H36.9677L39.3977 39.36L39.2277 33.75H41.6777ZM48.2671 38.5H45.0071C45.0605 38.7933 45.1905 39.0333 45.3971 39.22C45.6105 39.4 45.9105 39.49 46.2971 39.49C46.5771 39.49 46.8405 39.4367 47.0871 39.33C47.3338 39.2167 47.5305 39.06 47.6771 38.86C48.1238 39.08 48.7171 39.3167 49.4571 39.57C49.2505 40.0367 48.8738 40.41 48.3271 40.69C47.7871 40.9633 47.0805 41.1 46.2071 41.1C45.0738 41.1 44.2338 40.84 43.6871 40.32C43.1471 39.7933 42.8771 39.1033 42.8771 38.25C42.8771 37.4167 43.1471 36.74 43.6871 36.22C44.2271 35.7 45.0671 35.44 46.2071 35.44C46.8871 35.44 47.4771 35.5533 47.9771 35.78C48.4771 36.0067 48.8605 36.3233 49.1271 36.73C49.3938 37.13 49.5271 37.59 49.5271 38.11C49.5271 38.2833 49.5205 38.4133 49.5071 38.5H48.2671ZM46.3471 36.95C46.0138 36.95 45.7405 37.0133 45.5271 37.14C45.3138 37.2667 45.1638 37.44 45.0771 37.66H47.4371C47.3571 37.4467 47.2271 37.2767 47.0471 37.15C46.8671 37.0167 46.6338 36.95 46.3471 36.95ZM53.9532 41.1C53.3932 41.1 52.8232 41.0233 52.2432 40.87C51.6699 40.71 51.1299 40.47 50.6232 40.15L51.6732 38.72C51.9799 38.94 52.3499 39.1133 52.7832 39.24C53.2166 39.36 53.5899 39.42 53.9032 39.42C54.2032 39.42 54.4332 39.38 54.5932 39.3C54.7599 39.2133 54.8432 39.1033 54.8432 38.97C54.8432 38.8633 54.8032 38.78 54.7232 38.72C54.6432 38.66 54.5332 38.63 54.3932 38.63C54.3066 38.63 54.2066 38.6333 54.0932 38.64C53.9866 38.6467 53.8999 38.6533 53.8332 38.66C53.4866 38.7 53.1299 38.72 52.7632 38.72C52.1699 38.72 51.6866 38.61 51.3132 38.39C50.9466 38.1633 50.7632 37.7967 50.7632 37.29C50.7632 36.7033 51.0399 36.25 51.5932 35.93C52.1466 35.6033 52.9599 35.44 54.0332 35.44C54.5599 35.44 55.0899 35.5167 55.6232 35.67C56.1632 35.8167 56.6399 36.04 57.0532 36.34L55.9032 37.5C55.5232 37.3 55.1666 37.16 54.8332 37.08C54.5066 36.9933 54.1766 36.95 53.8432 36.95C53.6099 36.95 53.4099 36.9967 53.2432 37.09C53.0766 37.1833 52.9932 37.29 52.9932 37.41C52.9932 37.5033 53.0266 37.5767 53.0932 37.63C53.1666 37.6833 53.2599 37.71 53.3732 37.71C53.4866 37.71 53.6432 37.7 53.8432 37.68C54.3299 37.6467 54.6932 37.63 54.9332 37.63C55.6266 37.63 56.1632 37.7467 56.5432 37.98C56.9232 38.2133 57.1132 38.57 57.1132 39.05C57.1132 39.77 56.8332 40.2933 56.2732 40.62C55.7132 40.94 54.9399 41.1 53.9532 41.1ZM62.6478 37.33C62.0344 37.29 61.4744 37.26 60.9678 37.24L60.9578 38.3C60.9578 38.66 61.0344 38.9433 61.1878 39.15C61.3478 39.35 61.6278 39.45 62.0278 39.45C62.1811 39.45 62.3278 39.4367 62.4678 39.41C62.4411 39.6567 62.4278 39.9067 62.4278 40.16C62.4278 40.28 62.4344 40.5533 62.4478 40.98C62.1544 41.0333 61.9078 41.0667 61.7078 41.08C61.5078 41.0933 61.2478 41.1 60.9278 41.1C60.1478 41.1 59.5944 40.9133 59.2678 40.54C58.9478 40.16 58.7878 39.6333 58.7878 38.96L58.7978 37.27C58.4844 37.2833 58.1578 37.3033 57.8178 37.33V35.56C58.1644 35.56 58.4578 35.45 58.6978 35.23C58.9378 35.01 59.0811 34.7467 59.1278 34.44H61.8478C61.5078 34.9067 61.1311 35.28 60.7178 35.56H62.6478V37.33Z" fill="#2B788B"/>
</svg>
