<svg width="77" height="79" viewBox="0 0 77 79" fill="none" xmlns="http://www.w3.org/2000/svg">
<path d="M0 12C0 5.37258 5.37258 0 12 0H65C71.6274 0 77 5.37258 77 12V67C77 73.6274 71.6274 79 65 79H12C5.37258 79 0 73.6274 0 67V12Z" fill="#2B788B"/>
<path d="M61.807 15.7321H57.5144C55.468 9.69564 48.3691 5.81836 38.4878 5.81836C28.6052 5.81836 21.5133 9.69564 19.4645 15.7321H15.0977C14.4493 15.7321 13.9241 16.1499 13.9241 16.6604C13.9241 17.1738 14.4497 17.5911 15.0977 17.5911H19.0228C18.928 18.1866 18.7981 18.7673 18.7981 19.4001V27.7134C18.696 27.9285 18.6936 28.1656 18.7981 28.3738V34.4789C18.7981 43.085 27.6299 50.0952 38.4878 50.0952C39.1362 50.0952 39.6605 49.6784 39.6605 49.1642V28.0468C39.6605 27.639 39.3236 27.2821 38.8327 27.1557C38.3514 27.0329 37.8075 27.1889 37.5209 27.5247C37.4916 27.5637 34.5764 30.9033 30.1077 31.1739C27.2012 31.3866 24.1758 30.1954 21.1471 27.7398V21.4489C21.1811 21.4922 21.1838 21.54 21.217 21.5796C22.4589 23.0324 24.3376 24.0077 26.5005 24.3313C27.0288 24.4124 27.5597 24.4562 28.0826 24.4562C29.716 24.4562 31.3147 24.0684 32.6941 23.3264C33.9353 22.661 34.7738 21.7115 35.3966 20.6697C36.3216 21.7614 36.8651 23.082 36.8651 24.4995C36.8651 25.0115 37.3934 25.4273 38.0378 25.4273H38.8623C39.5067 25.4273 40.032 25.0115 40.032 24.4995C40.032 23.082 40.5782 21.7635 41.5032 20.6655C42.1277 21.7078 42.9665 22.661 44.2044 23.3264C45.5824 24.0684 47.1791 24.4562 48.8132 24.4562C49.3387 24.4562 49.8697 24.4121 50.3926 24.3313C52.5668 24.0077 54.4425 23.0324 55.6774 21.5832C55.7536 21.4988 55.7589 21.3935 55.8282 21.3082V27.63C54.2275 29.8599 52.3854 31.0567 50.3566 31.1826C46.335 31.5023 42.3813 27.4439 42.3477 27.4043C42.0434 27.0897 41.5232 26.9696 41.0412 27.0897C40.5629 27.2182 40.2417 27.5682 40.2417 27.9681L40.2463 46.9259C40.3885 49.67 41.2812 51.9059 42.8746 53.6343H32.5616C32.5223 53.5963 32.5296 53.5478 32.4824 53.5106L20.549 45.8373C20.05 45.5197 19.3098 45.5739 18.903 45.9727C18.4922 46.3715 18.5708 46.9583 19.0724 47.2801L28.9467 53.6301H18.7828C18.1344 53.6301 17.6088 54.0448 17.6088 54.559C17.6088 55.069 18.1344 55.4879 18.7828 55.4879H45.1996C48.1341 57.23 51.6891 57.6214 54.1769 57.6214C55.9017 57.6214 57.1114 57.4446 57.2289 57.4269C57.7797 57.3432 58.1788 56.9549 58.1788 56.5139V28.069C58.2441 27.8908 58.2441 27.7047 58.1788 27.5384V19.3998C58.1788 18.7673 58.0507 18.1887 57.9532 17.5909H61.807C62.4551 17.5909 62.9807 17.1736 62.9807 16.6602C62.9807 16.1499 62.4498 15.7321 61.807 15.7321ZM55.8322 55.7003C53.9259 55.8313 49.5481 55.8907 46.3883 53.9031C44.0353 52.4199 42.7521 50.0443 42.5907 46.8855V30.311C44.4394 31.6532 47.3795 33.1998 50.538 33.0316C52.4923 32.9144 54.2637 32.1653 55.8322 30.8136V55.7003ZM30.3058 33.0253C33.3451 32.8358 35.7381 31.5907 37.3142 30.4628V48.2068C28.2936 47.7317 21.1445 41.7573 21.1445 34.4831V30.2788C24.1519 32.2955 27.2065 33.2219 30.3058 33.0253ZM31.3823 21.7889C30.0758 22.4907 28.5077 22.7499 26.9409 22.5103C25.3881 22.2753 24.0397 21.5751 23.1513 20.539C22.401 19.6611 22.1534 18.6327 22.2369 17.5925H23.7784C23.9115 19.2792 25.2683 20.7293 27.314 21.0255C29.4996 21.3475 31.5713 20.2284 32.3729 18.4899C32.8329 18.6945 33.2646 18.931 33.6713 19.1944C33.2799 20.2408 32.535 21.1673 31.3823 21.7889ZM38.4515 21.304C37.908 20.2112 37.0222 19.2794 36.005 18.4511C35.9824 18.4279 35.9478 18.4173 35.9248 18.3941C33.92 16.7948 31.2228 15.7366 28.1608 15.7366H21.9174C24.1519 10.2362 31.307 7.68111 38.4878 7.68111C45.669 7.68111 52.8294 10.232 55.0569 15.7363H48.7383C45.6773 15.7363 42.9771 16.7987 40.9696 18.3981C40.949 18.4213 40.9177 18.4313 40.8997 18.4509C39.8802 19.2794 38.9948 20.2012 38.4515 21.304ZM49.9589 22.5103C48.4077 22.7497 46.832 22.4907 45.5265 21.7889C44.3725 21.1675 43.6242 20.2408 43.2401 19.1947C43.6402 18.9255 44.0739 18.6948 44.5356 18.4902C45.3371 20.2286 47.4141 21.3478 49.599 21.0258C51.6401 20.7233 52.9979 19.2794 53.1353 17.5927H54.6718C54.7534 18.633 54.512 19.6614 53.7581 20.5393C52.8657 21.5751 51.5183 22.269 49.9589 22.5103Z" fill="white"/>
<path d="M13.7553 69.27L14.2753 64.74H16.7153L15.3753 72H12.3053L11.6253 67.95L10.8353 72H7.89527L6.55527 64.74H8.99527L9.50527 69.21L10.3053 64.74H12.9753L13.7553 69.27ZM20.8319 72.1C19.6919 72.1 18.8519 71.84 18.3119 71.32C17.7786 70.7933 17.5119 70.1033 17.5119 69.25C17.5119 68.4167 17.7786 67.74 18.3119 67.22C18.8519 66.7 19.6919 66.44 20.8319 66.44C21.5986 66.44 22.2386 66.5667 22.7519 66.82C23.2719 67.0667 23.6552 67.4033 23.9019 67.83C24.1486 68.25 24.2719 68.7233 24.2719 69.25C24.2719 70.11 23.9852 70.8 23.4119 71.32C22.8452 71.84 21.9852 72.1 20.8319 72.1ZM20.8719 70.4C21.3052 70.4 21.6286 70.2967 21.8419 70.09C22.0552 69.8833 22.1619 69.6067 22.1619 69.26C22.1619 68.9333 22.0552 68.6667 21.8419 68.46C21.6286 68.2467 21.3052 68.14 20.8719 68.14C20.4386 68.14 20.1219 68.2433 19.9219 68.45C19.7219 68.6567 19.6219 68.9267 19.6219 69.26C19.6219 69.6067 19.7219 69.8833 19.9219 70.09C20.1219 70.2967 20.4386 70.4 20.8719 70.4ZM27.7952 68.02C28.0752 67.0133 28.7719 66.51 29.8852 66.51C30.0785 66.51 30.2652 66.5233 30.4452 66.55L30.1252 68.79C29.6452 68.61 29.2519 68.52 28.9452 68.52C28.5652 68.52 28.2852 68.6333 28.1052 68.86C27.9252 69.0867 27.8352 69.39 27.8352 69.77V69.76L27.8252 70.42C27.8252 70.8933 27.8385 71.42 27.8652 72H25.4752C25.5285 71.04 25.5552 70.1333 25.5552 69.28C25.5552 68.4267 25.5285 67.5133 25.4752 66.54C25.9152 66.56 26.2519 66.57 26.4852 66.57C26.7319 66.57 27.0685 66.56 27.4952 66.54L27.7952 68.02ZM37.9839 64.22C37.9439 65.46 37.9239 66.7567 37.9239 68.11C37.9239 69.45 37.9439 70.7467 37.9839 72H35.7239L35.7539 70.8C35.5606 71.2467 35.2806 71.5767 34.9139 71.79C34.5473 71.9967 34.1139 72.1 33.6139 72.1C33.1806 72.1 32.7906 71.9767 32.4439 71.73C32.0973 71.4833 31.8273 71.15 31.6339 70.73C31.4406 70.3033 31.3439 69.8367 31.3439 69.33C31.3439 68.83 31.4406 68.36 31.6339 67.92C31.8273 67.4733 32.0973 67.1167 32.4439 66.85C32.7973 66.5767 33.1973 66.44 33.6439 66.44C34.1639 66.44 34.6073 66.55 34.9739 66.77C35.3473 66.9833 35.6239 67.3167 35.8039 67.77C35.8039 67.39 35.7906 66.78 35.7639 65.94C35.7373 65.1267 35.7239 64.5533 35.7239 64.22H37.9839ZM34.6639 70.42C34.9906 70.42 35.2573 70.33 35.4639 70.15C35.6706 69.9633 35.7739 69.67 35.7739 69.27C35.7739 68.9167 35.6706 68.6567 35.4639 68.49C35.2573 68.3233 34.9973 68.24 34.6839 68.24C34.3839 68.24 34.1306 68.3367 33.9239 68.53C33.7239 68.7167 33.6239 68.9633 33.6239 69.27C33.6239 69.61 33.7173 69.8867 33.9039 70.1C34.0906 70.3133 34.3439 70.42 34.6639 70.42ZM47.6777 64.75C47.631 65.8767 47.6077 67.0833 47.6077 68.37C47.6077 69.6633 47.631 70.8733 47.6777 72H44.0977L41.6777 66.54L41.8577 72H39.2877C39.341 70.7067 39.3677 69.4967 39.3677 68.37C39.3677 67.25 39.341 66.0433 39.2877 64.75H42.9677L45.3977 70.36L45.2277 64.75H47.6777ZM54.2671 69.5H51.0071C51.0605 69.7933 51.1905 70.0333 51.3971 70.22C51.6105 70.4 51.9105 70.49 52.2971 70.49C52.5771 70.49 52.8405 70.4367 53.0871 70.33C53.3338 70.2167 53.5305 70.06 53.6771 69.86C54.1238 70.08 54.7171 70.3167 55.4571 70.57C55.2505 71.0367 54.8738 71.41 54.3271 71.69C53.7871 71.9633 53.0805 72.1 52.2071 72.1C51.0738 72.1 50.2338 71.84 49.6871 71.32C49.1471 70.7933 48.8771 70.1033 48.8771 69.25C48.8771 68.4167 49.1471 67.74 49.6871 67.22C50.2271 66.7 51.0671 66.44 52.2071 66.44C52.8871 66.44 53.4771 66.5533 53.9771 66.78C54.4771 67.0067 54.8605 67.3233 55.1271 67.73C55.3938 68.13 55.5271 68.59 55.5271 69.11C55.5271 69.2833 55.5205 69.4133 55.5071 69.5H54.2671ZM52.3471 67.95C52.0138 67.95 51.7405 68.0133 51.5271 68.14C51.3138 68.2667 51.1638 68.44 51.0771 68.66H53.4371C53.3571 68.4467 53.2271 68.2767 53.0471 68.15C52.8671 68.0167 52.6338 67.95 52.3471 67.95ZM59.9532 72.1C59.3932 72.1 58.8232 72.0233 58.2432 71.87C57.6699 71.71 57.1299 71.47 56.6232 71.15L57.6732 69.72C57.9799 69.94 58.3499 70.1133 58.7832 70.24C59.2166 70.36 59.5899 70.42 59.9032 70.42C60.2032 70.42 60.4332 70.38 60.5932 70.3C60.7599 70.2133 60.8432 70.1033 60.8432 69.97C60.8432 69.8633 60.8032 69.78 60.7232 69.72C60.6432 69.66 60.5332 69.63 60.3932 69.63C60.3066 69.63 60.2066 69.6333 60.0932 69.64C59.9866 69.6467 59.8999 69.6533 59.8332 69.66C59.4866 69.7 59.1299 69.72 58.7632 69.72C58.1699 69.72 57.6866 69.61 57.3132 69.39C56.9466 69.1633 56.7632 68.7967 56.7632 68.29C56.7632 67.7033 57.0399 67.25 57.5932 66.93C58.1466 66.6033 58.9599 66.44 60.0332 66.44C60.5599 66.44 61.0899 66.5167 61.6232 66.67C62.1632 66.8167 62.6399 67.04 63.0532 67.34L61.9032 68.5C61.5232 68.3 61.1666 68.16 60.8332 68.08C60.5066 67.9933 60.1766 67.95 59.8432 67.95C59.6099 67.95 59.4099 67.9967 59.2432 68.09C59.0766 68.1833 58.9932 68.29 58.9932 68.41C58.9932 68.5033 59.0266 68.5767 59.0932 68.63C59.1666 68.6833 59.2599 68.71 59.3732 68.71C59.4866 68.71 59.6432 68.7 59.8432 68.68C60.3299 68.6467 60.6932 68.63 60.9332 68.63C61.6266 68.63 62.1632 68.7467 62.5432 68.98C62.9232 69.2133 63.1132 69.57 63.1132 70.05C63.1132 70.77 62.8332 71.2933 62.2732 71.62C61.7132 71.94 60.9399 72.1 59.9532 72.1ZM68.6478 68.33C68.0344 68.29 67.4744 68.26 66.9678 68.24L66.9578 69.3C66.9578 69.66 67.0344 69.9433 67.1878 70.15C67.3478 70.35 67.6278 70.45 68.0278 70.45C68.1811 70.45 68.3278 70.4367 68.4678 70.41C68.4411 70.6567 68.4278 70.9067 68.4278 71.16C68.4278 71.28 68.4344 71.5533 68.4478 71.98C68.1544 72.0333 67.9078 72.0667 67.7078 72.08C67.5078 72.0933 67.2478 72.1 66.9278 72.1C66.1478 72.1 65.5944 71.9133 65.2678 71.54C64.9478 71.16 64.7878 70.6333 64.7878 69.96L64.7978 68.27C64.4844 68.2833 64.1578 68.3033 63.8178 68.33V66.56C64.1644 66.56 64.4578 66.45 64.6978 66.23C64.9378 66.01 65.0811 65.7467 65.1278 65.44H67.8478C67.5078 65.9067 67.1311 66.28 66.7178 66.56H68.6478V68.33Z" fill="white"/>
</svg>
