<svg width="62" height="50" viewBox="0 0 62 50" fill="none" xmlns="http://www.w3.org/2000/svg">
<g clip-path="url(#clip0_4608_2832)">
<path d="M37.8021 5.21925C29.1701 -1.73975 15.1266 -1.73975 6.49459 5.21925C-2.13752 12.1782 -2.13752 23.5011 6.49459 30.4601C15.1266 37.4191 29.1701 37.4191 37.8021 30.4601C46.4341 23.5011 46.4341 12.1782 37.8021 5.21925ZM34.7283 27.9821C27.7812 33.5817 16.5155 33.5817 9.56836 27.981C2.62122 22.3803 2.62122 13.2981 9.56836 7.69845C16.5155 2.09776 27.7798 2.09776 34.727 7.69845C41.6741 13.2991 41.6755 22.3803 34.7283 27.9821Z" fill="#2B788B"/>
<path d="M12.3446 10.9893C8.7885 14.6734 8.49245 19.7424 11.4578 23.6556C11.6852 23.957 12.1727 24.0509 12.5453 23.8687C12.9166 23.6843 13.0344 23.2922 12.807 22.9919C10.1825 19.5294 10.4442 15.0292 13.5906 11.7735C13.8602 11.4965 13.7981 11.096 13.4531 10.8796C13.1097 10.6634 12.6128 10.7124 12.3446 10.9893Z" fill="#2B788B"/>
<path d="M60.3908 43.7229L44.324 31.1057C43.4452 30.4152 42.0418 30.4238 41.1736 31.1227L38.6258 33.1767C37.7589 33.8755 37.7495 35.0069 38.6072 35.7144L54.2565 48.6671C55.9943 50.3589 58.5618 50.4591 60.5454 48.8589C62.5315 47.2609 62.488 45.1238 60.3908 43.7229Z" fill="#2B788B"/>
</g>
<defs>
<clipPath id="clip0_4608_2832">
<rect width="62" height="50" fill="white"/>
</clipPath>
</defs>
</svg>
