<svg width="44" height="41" viewBox="0 0 44 41" fill="none" xmlns="http://www.w3.org/2000/svg">
<path d="M27.0759 4.89552C21.0387 -0.715173 11.2166 -0.715173 5.17937 4.89552C-0.857965 10.5062 -0.857965 19.6353 5.17937 25.246C11.2166 30.8567 21.0387 30.8567 27.0759 25.246C33.1132 19.6353 33.1132 10.5062 27.0759 4.89552ZM24.9261 23.2481C20.0673 27.7627 12.188 27.7627 7.32917 23.2472C2.47031 18.7316 2.47031 11.4091 7.32917 6.89438C12.188 2.37882 20.0664 2.37882 24.9252 6.89438C29.7841 11.4099 29.785 18.7316 24.9261 23.2481Z" fill="white"/>
<path d="M9.27095 9.54767C6.78378 12.518 6.57672 16.6048 8.6507 19.7598C8.80972 20.0029 9.15073 20.0785 9.41133 19.9316C9.671 19.783 9.75335 19.4668 9.59433 19.2247C7.75876 16.4331 7.94175 12.8048 10.1424 10.1799C10.331 9.95654 10.2875 9.63365 10.0462 9.45917C9.80605 9.28485 9.45852 9.32437 9.27095 9.54767Z" fill="white"/>
<path d="M42.8748 35.939L31.6376 25.7664C31.0229 25.2097 30.0414 25.2166 29.4341 25.7801L27.6522 27.4361C27.0459 27.9995 27.0393 28.9118 27.6392 29.4821L38.5844 39.9253C39.7998 41.2893 41.5955 41.3701 42.9829 40.0799C44.372 38.7915 44.3415 37.0685 42.8748 35.939Z" fill="white"/>
</svg>
