<svg width="62" height="52" viewBox="0 0 62 52" fill="none" xmlns="http://www.w3.org/2000/svg">
<rect width="62" height="52" rx="12" fill="#2B788B"/>
<path d="M35.0759 9.89552C29.0387 4.28483 19.2166 4.28483 13.1794 9.89552C7.14203 15.5062 7.14203 24.6353 13.1794 30.246C19.2166 35.8567 29.0387 35.8567 35.0759 30.246C41.1132 24.6353 41.1132 15.5062 35.0759 9.89552ZM32.9261 28.2481C28.0673 32.7627 20.188 32.7627 15.3292 28.2472C10.4703 23.7316 10.4703 16.4091 15.3292 11.8944C20.188 7.37882 28.0664 7.37882 32.9252 11.8944C37.7841 16.4099 37.785 23.7316 32.9261 28.2481Z" fill="white"/>
<path d="M17.2709 14.5477C14.7838 17.518 14.5767 21.6048 16.6507 24.7598C16.8097 25.0029 17.1507 25.0785 17.4113 24.9316C17.671 24.783 17.7534 24.4668 17.5943 24.2247C15.7588 21.4331 15.9418 17.8048 18.1424 15.1799C18.331 14.9565 18.2875 14.6336 18.0462 14.4592C17.806 14.2848 17.4585 14.3244 17.2709 14.5477Z" fill="white"/>
<path d="M50.8748 40.939L39.6376 30.7664C39.0229 30.2097 38.0414 30.2166 37.4341 30.7801L35.6522 32.4361C35.0459 32.9995 35.0393 33.9118 35.6392 34.4821L46.5844 44.9253C47.7998 46.2893 49.5955 46.3701 50.9829 45.0799C52.372 43.7915 52.3415 42.0685 50.8748 40.939Z" fill="white"/>
</svg>
